<?xml version="1.0" encoding="UTF-8" standalone="no"?>
<!-- Generator: Adobe Illustrator 17.1.0, SVG Export Plug-In . SVG Version: 6.00 Build 0)  -->

<svg
   xmlns:dc="http://purl.org/dc/elements/1.1/"
   xmlns:cc="http://creativecommons.org/ns#"
   xmlns:rdf="http://www.w3.org/1999/02/22-rdf-syntax-ns#"
   xmlns:svg="http://www.w3.org/2000/svg"
   xmlns="http://www.w3.org/2000/svg"
   xmlns:sodipodi="http://sodipodi.sourceforge.net/DTD/sodipodi-0.dtd"
   xmlns:inkscape="http://www.inkscape.org/namespaces/inkscape"
   version="1.1"
   id="Layer_1"
   x="0px"
   y="0px"
   viewBox="0 0 797.9 797.9"
   xml:space="preserve"
   inkscape:version="0.48.5 r10040"
   width="100%"
   height="100%"
   sodipodi:docname="CraneIcon.svg"><metadata
   id="metadata6245"><rdf:RDF><cc:Work
       rdf:about=""><dc:format>image/svg+xml</dc:format><dc:type
         rdf:resource="http://purl.org/dc/dcmitype/StillImage" /><dc:title /></cc:Work></rdf:RDF></metadata><defs
   id="defs6243" /><sodipodi:namedview
   pagecolor="#ffffff"
   bordercolor="#666666"
   borderopacity="1"
   objecttolerance="10"
   gridtolerance="10"
   guidetolerance="10"
   inkscape:pageopacity="0"
   inkscape:pageshadow="2"
   inkscape:window-width="640"
   inkscape:window-height="480"
   id="namedview6241"
   showgrid="false"
   fit-margin-top="0"
   fit-margin-left="0"
   fit-margin-right="0"
   fit-margin-bottom="0"
   inkscape:zoom="0.2085965"
   inkscape:cx="623.21656"
   inkscape:cy="287.7108"
   inkscape:window-x="0"
   inkscape:window-y="0"
   inkscape:window-maximized="0"
   inkscape:current-layer="Layer_1" />

<g
   id="g6276"
   transform="translate(-6.7886144,-2.0999994)"
   style="fill:#6c5d53"><path
     sodipodi:nodetypes="ssssccsssssscsccccccc"
     inkscape:connector-curvature="0"
     id="path6239"
     d="m 119.594,503.801 c 7.17,-35.354 38.252,-60.765 74.326,-60.765 l 1.252,0 c 36.074,0 67.156,25.411 74.326,60.765 L 329.57,800 59.522,800 z m 74.952,57.738 c 25.117,0 45.479,-20.362 45.479,-45.479 0,-25.118 -20.362,-45.479 -45.479,-45.479 -25.118,0 -45.479,20.361 -45.479,45.479 0,25.117 20.361,45.479 45.479,45.479 z M 171.438,405.443 c 7.689,-1.562 15.609,-2.468 23.735,-2.468 54.909,0 102.683,39.049 113.6,92.862 l 0.615,3.031 297.925,-361.513 C 586.917,123.707 572.917,102.31 568.813,77.962 z M 657.288,94.729 c -438.192,470.18067 -219.096,235.09033 0,0 z"
     style="fill:#6c5d53" /><path
     sodipodi:nodetypes="ccssscssssssssccsssss"
     inkscape:connector-curvature="0"
     id="path6239-3"
     d="m 675.22238,221.35362 0,-96.49599 c 24.999,-8.409 43.125,-31.769999 43.125,-59.603001 0,-34.878 -28.274,-63.1519996 -63.152,-63.1519996 -34.877,0 -63.152,28.2739996 -63.152,63.1519996 0,27.829002 18.12,51.188001 43.113,59.600001 l 0,114.09299 c 0,11.06 8.973,20.033 20.033,20.033 23.776,0 43.118,19.342 43.118,43.118 0,23.776 -19.342,43.118 -43.118,43.118 -23.776,0 -43.118,-19.342 -43.118,-43.118 0,-11.06 -8.973,-20.033 -20.033,-20.033 -11.06,0 -20.033,8.973 -20.033,20.033 0,45.87 37.315,83.185 83.185,83.185 45.87,0 83.185,-37.315 83.185,-83.185 0,-38.97 -26.934,-71.758 -63.153,-80.745 z m -51.603,-156.098991 c 0,-17.439 14.138,-31.576 31.576,-31.576 17.439,0 31.576,14.137 31.576,31.576 0,17.439 -14.137,31.577002 -31.576,31.577002 -17.438,0 -31.576,-14.138002 -31.576,-31.577002 z"
     style="fill:#6c5d53" /></g></svg>