<?xml version="1.0" encoding="UTF-8" standalone="no"?>
<!-- Created with Inkscape (http://www.inkscape.org/) -->

<svg
   xmlns:dc="http://purl.org/dc/elements/1.1/"
   xmlns:cc="http://creativecommons.org/ns#"
   xmlns:rdf="http://www.w3.org/1999/02/22-rdf-syntax-ns#"
   xmlns:svg="http://www.w3.org/2000/svg"
   xmlns="http://www.w3.org/2000/svg"
   version="1.1"
   width="697.25549"
   height="257.88205"
   viewBox="0 0 196.781 72.780047"
   id="svg3026"
   xml:space="preserve"
   style="fill-rule:evenodd"><metadata
   id="metadata3065"><rdf:RDF><cc:Work
       rdf:about=""><dc:format>image/svg+xml</dc:format><dc:type
         rdf:resource="http://purl.org/dc/dcmitype/StillImage" /><dc:title></dc:title></cc:Work></rdf:RDF></metadata>
 <defs
   id="defs3028">
  <style
   type="text/css"
   id="style3030" />
 </defs>
 <g
   transform="translate(-15.134402,-114.15625)"
   id="Слой_x0020_1">
  <metadata
   id="CorelCorpID_0Corel-Layer" />
  <path
   d="m 178.347,128.727 c -0.0243,0.3505 -0.1309,0.6845 -0.0346,1.0131 0.144,0.3161 0.468,0.4817 0.7446,0.7008 0.3526,0.3375 0.2886,0.7575 0.219,1.095 -0.1074,0.3582 -0.4013,0.6503 -0.7008,0.7446 -0.429,0.0807 -0.6826,0.002 -1.0074,-0.0876 -0.8768,-0.38 -0.5988,-0.9787 -0.2954,-1.2486 -0.6224,-0.1204 -0.8285,0.4373 -0.7151,0.9758 0.068,0.323 0.2381,0.6282 0.4684,0.8479 0.3864,0.2571 0.7802,0.4989 1.5495,0.3447 0.5019,-0.1413 1.2615,-0.4475 1.4892,-1.1826 0.1207,-0.4433 0.1372,-0.9801 -0.1314,-1.4454 -0.1732,-0.3049 -0.5383,-0.5054 -0.9199,-0.7498 -0.3698,-0.2883 -0.1408,-0.6737 -0.1977,-1.0079 -0.1324,0 -0.336,0 -0.4684,0 z"
   id="hook"
   style="fill:#605d5c;stroke:#1f1a17;stroke-width:0.0762" />
  <rect
   width="0.39719999"
   height="1.7364"
   x="178.386"
   y="126.952"
   id="rope_hook"
   style="fill:#1f1a17;stroke:#1f1a17;stroke-width:0.25" />
  <g
   id="telescopic">
   <path
   d="m 176.801,120.773 c 0.8043,0.0307 3.9027,-0.0658 3.9027,-0.0658 -0.1754,1.4909 -0.4824,3.0921 -0.6578,4.583 -0.9063,-0.0585 -1.7906,0.0149 -2.6968,-0.0435 -0.1754,-1.374 -0.3727,-3.0997 -0.5481,-4.4737 z"
   id="_118805784"
   style="fill:#957f66;stroke:#1f1a17;stroke-width:0.0762" />
   <path
   d="m 130.71,118.98 c 4.5735,-0.0584 38.097,-0.6256 42.6705,-0.6841 1.1108,0.7016 2.3094,1.7754 3.4203,2.477 1.315,0.0919 2.6575,-0.0434 3.9027,-0.0658 1.3872,-1.9587 1.4442,-4.0333 0.7712,-5.8774 l -51.0269,-0.3122 0.2622,4.4625 z"
   id="_118805712"
   style="fill:#957f66;stroke:#1f1a17;stroke-width:0.0762" />
   <path
   d="m 130.448,114.518 0.2622,4.4625 31.4659,-0.508 c 1.89,-1.025 -0.728,-2.5222 -1.0933,-3.767 L 130.448,114.518 z"
   id="_118805640"
   style="fill:#8f5444;stroke:#1f1a17;stroke-width:0.0762" />
  </g>
  <g
   id="ellipse_hook">
   <ellipse
   cx="178.564"
   cy="125.818"
   rx="1.5675"
   ry="1.47392"
   id="_118805568"
   style="fill:#8f5444;stroke:#1f1a17;stroke-width:0.0762" />
   <ellipse
   cx="178.564"
   cy="125.818"
   rx="0.62249702"
   ry="0.58533299"
   id="_118805520"
   style="fill:#1f1a17;stroke:#1f1a17;stroke-width:0.2" />
  </g>
  <path
   d="m 127.305,120.242 c 0.3307,0.1506 1.5107,0.4189 2.7668,-0.6558 l 29.8179,-0.5216 c 1.7805,-1.5638 -1.0851,-3.5822 -2.1801,-4.6208 l -29.2485,0 c -0.6273,0.075 -2.3488,0.9994 -2.817,1.8971 l -1.4242,2.668 3.0851,1.2331 z"
   id="outrigger"
   style="fill:#957f66;stroke:#1f1a17;stroke-width:0.0762" />
  <path
   d="m 54.477,123.558 c 0.7184,-0.0206 3.4537,-0.0836 4.1749,-0.104 22.3654,-0.6344 46.1539,-1.2001 68.4244,-1.8394 1.3871,-1.8705 -2.9664,-3.2557 -3.8141,-4.6005 -20.7551,0.0598 -49.4284,-0.0257 -70.7441,-0.2622 -1.709,-0.0189 -4.4391,0.192 -5.6904,2.4741 l -1.7916,3.4665 2.9916,2.6723 c 1.0993,0.2071 4.9828,-1.6806 6.4493,-1.8068 z"
   id="derrick"
   style="fill:#957f66;stroke:#1f1a17;stroke-width:0.0762" />
  <g
   id="ellipse_outrigger">
   <ellipse
   cx="124.22"
   cy="119.009"
   rx="5.10919"
   ry="4.8041601"
   id="_118757208"
   style="fill:#8f5444;stroke:#1f1a17;stroke-width:0.0762" />
   <ellipse
   cx="124.22"
   cy="119.009"
   rx="2.029"
   ry="1.90786"
   id="_118757160"
   style="fill:#1f1a17;stroke:#1f1a17;stroke-width:0.2" />
  </g>
  <g
   id="right_crutch">
   <rect
   width="3.0518"
   height="16.4739"
   x="64.159698"
   y="138.95"
   id="_118756944"
   style="fill:#8f5444;stroke:#1f1a17;stroke-width:0.0762" />
   <rect
   width="5.1092"
   height="15.413"
   x="63.091"
   y="155.358"
   id="_118756872"
   style="fill:#1f1a17;stroke:#1f1a17;stroke-width:0.5" />
   <polygon
   points="63.091,172.01 64.3683,170.811 65.6456,169.612 66.9229,170.811 68.2002,172.01 65.6456,172.01 "
   id="_118756824"
   style="fill:#1f1a17;stroke:#1f1a17;stroke-width:0.2" />
  </g>
  <g
   id="left_crutch">
   <rect
   width="3.0954001"
   height="16.4739"
   x="24.0972"
   y="138.95"
   id="_118756680"
   style="fill:#8f5444;stroke:#1f1a17;stroke-width:0.0762" />
   <rect
   width="4.9954"
   height="15.413"
   x="23.1735"
   y="155.356"
   id="_118756608"
   style="fill:#1f1a17;stroke:#1f1a17;stroke-width:0.5" />
   <polygon
   points="23.1735,172.01 24.4223,170.811 25.6712,169.612 26.92,170.811 28.1689,172.01 25.6712,172.01 "
   id="_118756560"
   style="fill:#1f1a17;stroke:#1f1a17;stroke-width:0.2" />
  </g>
  <g
   id="pillar">
   <path
   d="m 23.1735,153.896 c 0.7384,0 4.257,0 4.9954,0 l 1.3702,-1.5563 32.4862,0 1.0657,1.5563 c 0.7384,0 4.329,0 5.0674,0 0.028,-5.396 0.0137,-10.7018 0.0418,-16.0979 l -5.102,0 -0.0144,6.9642 -13.0235,0 -2.5121,-3.0161 -5.0242,0 -2.4983,3.0161 c -4.0588,-0.0292 -7.798,0.0292 -11.8568,0 l 0,-6.9642 -4.9954,0 0,16.0979 z"
   id="main_pillar"
   style="fill:#957f66;stroke:#1f1a17;stroke-width:0.0762" />
   <rect
   width="10.0737"
   height="16.2005"
   x="39.986599"
   y="125.546"
   id="up_pillar"
   style="fill:#8f5444;stroke:#1f1a17;stroke-width:0.0762" />
  </g>
  <g
   id="ellipse_derrick">
   <ellipse
   cx="45.036098"
   cy="122.693"
   rx="6.47509"
   ry="6.0885201"
   id="_118756176"
   style="fill:#8f5444;stroke:#1f1a17;stroke-width:0.0762" />
   <ellipse
   cx="45.036098"
   cy="122.693"
   rx="2.57143"
   ry="2.4179101"
   id="_118756128"
   style="fill:#1f1a17;stroke:#1f1a17;stroke-width:0.2" />
  </g>
  <rect
   width="196.78101"
   height="8.1732998"
   x="15.1344"
   y="178.763"
   id="ground"
   style="fill:#b2b2b2" />
 </g>
</svg>